<?xml version="1.0" encoding="utf-8"?>
<!-- Generator: Adobe Illustrator 16.0.3, SVG Export Plug-In . SVG Version: 6.00 Build 0)  -->
<!DOCTYPE svg PUBLIC "-//W3C//DTD SVG 1.1//EN" "http://www.w3.org/Graphics/SVG/1.1/DTD/svg11.dtd">
<svg version="1.1" id="Capa_1" xmlns="http://www.w3.org/2000/svg" xmlns:xlink="http://www.w3.org/1999/xlink" x="0px" y="0px"
	 width="595.28px" height="841.89px" viewBox="0 0 595.28 841.89" enable-background="new 0 0 595.28 841.89" xml:space="preserve">
<g>
	<g>
		<path fill-rule="evenodd" clip-rule="evenodd" fill="#FEFEFE" d="M298.51,600.909c-62.586,0-125.173-0.01-187.76,0.047
			c-1.875,0.002-2.297-0.423-2.296-2.297c0.052-117.673,0.052-235.346,0-353.019c-0.001-1.875,0.422-2.297,2.296-2.297
			c125.173,0.052,250.347,0.052,375.52,0c1.875,0,2.298,0.422,2.297,2.297c-0.052,117.673-0.052,235.346,0,353.019
			c0.001,1.874-0.422,2.299-2.297,2.297C423.683,600.899,361.097,600.909,298.51,600.909z M139.574,418.162
			c-0.247,17.582,1.805,34.277,6.781,50.516c9.877,32.234,27.93,58.978,54.397,79.95c22.264,17.642,47.523,28.501,75.543,32.833
			c10.19,1.576,20.468,2.019,30.83,1.533c11.012-0.517,21.846-1.993,32.44-4.817c31.979-8.526,58.916-25.226,80.271-50.622
			c23.154-27.535,35.082-59.493,36.713-95.3c0.576-12.628,0.266-25.264-1.529-37.849c-1.846-12.951-5.096-25.498-10.034-37.577
			c-11.676-28.56-29.952-52.001-54.963-70.128c-21.855-15.841-46.253-25.452-72.935-29.093c-16.077-2.195-32.155-1.769-48.194,1.09
			c-13.454,2.398-26.37,6.377-38.73,12.114c-25.858,12.001-46.9,29.796-63.093,53.247c-12.456,18.037-20.658,37.927-24.726,59.438
			C140.146,395.121,139.245,406.913,139.574,418.162z"/>
		<path fill-rule="evenodd" clip-rule="evenodd" fill="#67403D" d="M139.574,418.162c-0.329-11.249,0.573-23.041,2.771-34.664
			c4.068-21.512,12.271-41.401,24.726-59.438c16.193-23.45,37.235-41.245,63.093-53.247c12.36-5.737,25.276-9.716,38.73-12.114
			c16.039-2.859,32.117-3.285,48.194-1.09c26.682,3.641,51.079,13.252,72.935,29.093c25.011,18.127,43.287,41.568,54.963,70.128
			c4.938,12.08,8.188,24.626,10.034,37.577c1.795,12.585,2.105,25.22,1.529,37.849c-1.631,35.807-13.559,67.765-36.713,95.3
			c-21.354,25.396-48.291,42.096-80.271,50.622c-10.595,2.824-21.429,4.301-32.44,4.817c-10.361,0.485-20.64,0.043-30.83-1.533
			c-28.02-4.332-53.279-15.191-75.543-32.833c-26.467-20.973-44.52-47.716-54.397-79.95
			C141.379,452.439,139.327,435.744,139.574,418.162z M440.806,486.427c1.014-0.737,1.182-1.767,1.146-3.209
			c-1.069,0.92-1.417,1.844-1.464,2.92c-0.462,0.273-0.502,0.737-0.538,1.202c-2.041,3.622-4.081,7.245-6.122,10.867
			c-0.067,0.207-0.136,0.413-0.204,0.619c-2.546,3.61-5.068,7.237-7.644,10.826c-8.66,12.063-19.063,22.423-30.833,31.436
			c-19.242,14.731-40.826,24.378-64.539,29.095c-12.409,2.469-24.974,3.379-37.696,2.783c-16.73-0.782-32.885-3.996-48.533-9.838
			c-27.159-10.138-49.932-26.438-68.375-48.816c-4.808-5.835-9.004-12.092-13.223-18.339c-0.222-0.252-0.468-0.416-0.788-0.165
			c-0.324,0.254-0.212,0.53-0.018,0.804c1.14,3.128,2.988,5.866,4.729,8.667c9.672,15.555,21.639,29.103,36.038,40.394
			c24.782,19.434,52.837,30.699,84.316,33.376c11.586,0.984,23.119,0.737,34.582-0.896c13.994-1.994,27.529-5.811,40.45-11.631
			c28.499-12.84,51.301-32.251,67.625-59.009c1.567-2.568,3.85-4.763,4.578-7.83c0.132-0.01,0.218-0.077,0.258-0.203
			c2.348-3.735,4.313-7.656,5.715-11.849C440.447,487.23,440.626,486.829,440.806,486.427z M160.205,493.438
			c0.175,0.337,0.359,0.724,0.824,0.558c0.371-0.133,0.284-0.475,0.179-0.772c-1.588-3.095-3.175-6.188-4.763-9.281
			c-0.438-1.082-0.542-2.359-2.183-3.379c0.429,1.486,0.383,2.596,1.38,3.372C156.945,487.208,158.207,490.5,160.205,493.438z
			 M160.187,342.849c-2.017,2.938-3.311,6.227-4.624,9.506c-0.741,0.848-1.251,1.757-0.803,3.546
			c0.709-1.517,1.187-2.537,1.664-3.557c1.618-3.088,3.235-6.175,4.853-9.263c0.412-0.796,1.698-1.856,0.609-2.41
			c-1.038-0.528-1.167,1.17-1.629,1.942C160.216,342.682,160.209,342.77,160.187,342.849z M440.132,356.327
			c0.496,1.14,0.991,2.28,1.487,3.42c0.379-1.35,0.283-2.505-0.736-3.372c-1.753-4.725-3.804-9.306-6.521-13.566
			c-0.208-0.451-0.39-0.918-0.627-1.353c-8.87-16.227-20.278-30.421-34.186-42.604c-24.217-21.215-52.378-33.765-84.232-37.962
			c-12.586-1.659-25.261-1.58-37.855-0.008c-12.77,1.594-25.213,4.674-37.203,9.436c-30.187,11.989-54.228,31.56-72.159,58.623
			c-2.178,3.288-4.062,6.772-6.06,10.178c-0.275,0.469-0.778,1.136-0.02,1.494c0.746,0.352,0.889-0.474,1.168-0.954
			c1.025-1.767,2.338-3.335,3.489-5.009c9.364-13.614,20.476-25.573,33.591-35.633c27.571-21.149,58.834-31.911,93.486-32.709
			c15.939-0.368,31.588,1.915,46.935,6.37c26.061,7.566,48.669,20.971,68.07,39.857c9.348,9.1,17.221,19.399,24.239,30.369
			C435.376,347.377,437.754,351.852,440.132,356.327z M143.372,417.672c0.035,5.44,0.522,10.813,1.229,16.188
			c0.705,5.356,1.662,10.668,2.966,15.889c6.417,25.689,18.284,48.61,36.202,68.104c29.362,31.944,65.935,49.169,109.245,51.631
			c18.481,1.05,36.684-1.425,54.258-7.323c40.113-13.463,70.234-38.899,89.319-76.705c12.456-24.675,18.691-50.809,15.107-78.736
			c-1.677-13.065-4.891-25.704-9.785-37.897c-10.916-27.188-28.053-49.73-51.44-67.349c-23.444-17.661-49.833-28.023-79.122-30.906
			c-12.912-1.271-25.784-0.951-38.564,1.001c-12.295,1.878-24.242,5.211-35.73,10.096c-32.092,13.643-56.877,35.536-74.082,65.858
			C150.645,369.254,144.131,392.682,143.372,417.672z M154.218,480.408c0.22-1.755-0.6-2.768-1.372-3.798
			C152.939,477.89,153.175,479.118,154.218,480.408z M443.063,480.66c-0.404,0.645-1.103,1.23-0.851,2.312
			C443.032,482.326,443.167,481.555,443.063,480.66z M154.141,355.746c-0.241,0.195-0.506,0.306-0.54,0.465
			c-0.038,0.177,0.095,0.531,0.229,0.574c0.313,0.101,0.62-0.051,0.608-0.443C154.431,356.166,154.271,355.995,154.141,355.746z
			 M160.935,494.875c0.106,0.382,0.25,0.739,0.735,0.806c0.471,0.063,0.54-0.299,0.515-0.582c-0.044-0.502-0.256-0.99-0.867-0.947
			C160.982,494.174,160.86,494.508,160.935,494.875z M443.696,479.57c0.054-0.035,0.138-0.06,0.155-0.108
			c0.022-0.061-0.009-0.142-0.017-0.214c-0.082,0.048-0.164,0.095-0.247,0.143C443.624,479.45,443.66,479.509,443.696,479.57z"/>
		<path fill-rule="evenodd" clip-rule="evenodd" fill="#FDFDFD" d="M143.372,417.672c0.759-24.991,7.273-48.418,19.603-70.149
			c17.205-30.322,41.99-52.215,74.082-65.858c11.489-4.884,23.435-8.218,35.73-10.096c12.78-1.952,25.652-2.272,38.564-1.001
			c29.289,2.883,55.678,13.245,79.122,30.906c23.388,17.618,40.524,40.16,51.44,67.349c4.895,12.193,8.108,24.832,9.785,37.897
			c3.584,27.928-2.651,54.062-15.107,78.736c-19.085,37.806-49.206,63.242-89.319,76.705c-17.574,5.898-35.776,8.373-54.258,7.323
			c-43.31-2.462-79.883-19.687-109.245-51.631c-17.918-19.494-29.785-42.415-36.202-68.104c-1.304-5.221-2.261-10.532-2.966-15.889
			C143.894,428.486,143.407,423.113,143.372,417.672z M352.383,418.664c-0.677,0.282-1.026,0.016-1.38-0.185
			c-5.505-3.117-11.064-6.144-16.488-9.396c-2.909-1.745-5.854-2.049-9.099-1.504c-3.9,0.655-6.602,3.364-9.767,5.307
			c-17.809,10.934-36.126,21.014-53.9,32.013c-2.829,1.75-4.552,4.063-5.554,7.056c-2.777,8.296,3.219,16.131,11.817,15.462
			c2.94-0.229,5.487-1.437,7.867-3.475c0.285,3.459,0.229,6.768,0.294,10.073c0.388,19.82,0.898,39.64,1.156,59.463
			c0.088,6.77,0.518,6.893,7.145,6.795c30.32-0.443,60.64-0.896,90.96-1.344c2.083-0.03,4.171,0.043,6.246-0.086
			c2.744-0.172,3.897-1.401,3.893-4.153c-0.004-2.329-0.221-4.656-0.288-6.986c-0.383-13.322-0.823-26.645-1.093-39.97
			c-0.157-7.724-0.029-15.452-0.029-23.36c0.269-0.098,0.803,0.458,1.4,0.667c6.711,2.342,13.593-0.135,16.237-5.881
			c2.57-5.582,0.072-12.479-5.943-15.992c-4.168-2.435-8.438-4.695-12.688-6.982c-1.034-0.557-1.581-1.134-1.596-2.46
			c-0.091-8.662-0.312-17.323-0.472-25.985c-0.071-3.875-0.845-4.749-4.684-4.697c-6.829,0.093-13.658,0.265-20.485,0.45
			c-2.855,0.078-3.526,0.79-3.545,3.602C352.363,410.983,352.383,414.872,352.383,418.664z M226.444,446.314
			c-2.765-2.71-5.215-5.423-7.99-7.747c-3.106-2.602-5.043-5.396-3.536-9.593c0.08-0.224,0.03-0.496,0.034-0.746
			c0.333-22.342-21.264-38.605-42.396-34.735c-2.123,0.389-3.328,1.521-3.693,3.758c-3.875,23.728,16.676,45.335,39.398,41.242
			c1.64-0.296,2.789,0.042,3.998,1.209c4.017,3.874,8.095,7.689,12.267,11.396c1.565,1.392,2.156,2.837,2.159,4.954
			c0.033,24.079,0.164,48.156,0.308,72.234c0.021,3.58,0.237,7.158,0.371,10.738c0.058,1.55,0.792,2.625,2.408,2.6
			c1.61-0.025,2.293-1.146,2.385-2.667c0.03-0.499,0.088-0.996,0.095-1.496c0.068-4.748,0.199-9.496,0.178-14.245
			c-0.125-27.493-0.284-54.987-0.439-82.481c-0.007-1.336-0.028-2.54,1.128-3.622c4.561-4.269,9.036-8.631,13.504-12.996
			c0.861-0.842,1.674-1.046,2.891-0.835c6.246,1.084,12.258,0.107,18.068-2.338c13.667-5.754,22.635-19.598,21.943-33.891
			c-0.337-6.964-2.32-9.137-9.197-9.967c-1.233-0.149-2.498-0.164-3.741-0.102c-20.193,1-36.042,20.323-32.965,40.28
			c0.226,1.464-0.131,2.316-1.101,3.261c-3.101,3.025-6.13,6.123-9.203,9.175c-0.315,0.313-0.591,0.89-1.554,0.289
			c0-8.281,0.032-16.77-0.022-25.257c-0.014-2.134-0.145-4.125,2.564-4.821c0.647-0.166,1.179-0.899,1.696-1.438
			c11.781-12.268,15.763-26.706,11.737-43.222c-2.237-9.179-6.917-16.901-14.69-22.523c-2.711-1.96-4.867-1.946-7.58-0.052
			c-0.886,0.619-1.734,1.299-2.55,2.009c-12.37,10.747-17.09,30.098-11.182,46.745c2.764,7.786,6.708,14.876,14.081,19.375
			c0.66,0.402,0.621,0.907,0.621,1.467C226.445,416.847,226.444,431.423,226.444,446.314z M341.325,324.287
			c-15.27,0.008-27.268,12.02-27.424,27.168c-0.166,16.184,13.467,27.853,28.015,27.853c15.215,0,27.25-12.098,27.224-27.331
			C369.112,336.515,356.821,324.279,341.325,324.287z M380.086,326.267c-3.654,1.486-7.049,3.465-9.973,6.119
			c-0.876,0.796-0.541,2.216,0.251,3.197c0.771,0.953,1.808,0.679,2.748,0.303c3.114-1.244,5.766-3.259,8.437-5.222
			c0.965-0.709,1.251-1.772,0.784-2.9C381.951,326.838,381.2,326.352,380.086,326.267z M381.201,374.407
			c1.221,0.068,2.136-0.407,2.512-1.599c0.405-1.282-0.123-2.349-1.197-2.98c-2.495-1.467-5.007-2.929-7.619-4.167
			c-1.264-0.599-3.033-1.345-3.846,0.626c-0.78,1.894,0.03,3.416,1.949,4.195c1.921,0.781,3.671,1.848,5.422,2.938
			C379.259,373.941,380.166,374.391,381.201,374.407z M324.843,381.337c-0.476-0.154-1.345,0.222-1.66,0.764
			c-1.81,3.105-3.907,6.085-4.981,9.553c-0.321,1.038,0.202,2.185,1.36,2.638c1.093,0.427,2.253,0.233,2.9-0.769
			c1.92-2.973,3.931-5.932,4.937-9.368C327.899,382.444,326.952,381.505,324.843,381.337z M338.935,392.947
			c0.129,0.95,0.213,1.773,0.355,2.585c0.233,1.33,0.812,2.54,2.362,2.297c1.403-0.219,2.898-0.492,2.916-2.639
			c0.023-2.883,0.216-5.763,0.025-8.65c-0.101-1.529-0.778-2.247-2.352-2.179c-1.43,0.062-2.798,0.221-2.756,2.056
			C339.538,388.658,339.411,390.87,338.935,392.947z M342.517,312.484c-0.583-1.336,0.332-3.129-0.367-4.825
			c-0.474-1.147-1.024-2.007-2.512-1.934c-1.41,0.069-1.956,0.722-2.356,2.024c-0.893,2.905-0.092,5.774-0.065,8.653
			c0.017,1.853,1.15,2.631,2.961,2.507c1.779-0.122,2.458-1.106,2.353-2.822C342.463,315.009,342.517,313.923,342.517,312.484z
			 M363.63,311.399c0.024-1.013-0.088-1.979-1.077-2.376c-1.052-0.422-2.279-0.445-2.961,0.561
			c-2.037,3.003-4.137,6.025-5.026,9.601c-0.48,1.927,1.436,3.278,3.289,2.506c0.975-0.405,1.682-1.184,2.011-2.105
			c0.675-1.893,1.747-3.542,2.799-5.218C363.241,313.447,363.693,312.471,363.63,311.399z M300.42,328.851
			c-1.054-0.097-1.82,0.476-2.229,1.493c-0.425,1.064-0.041,2.114,0.794,2.673c2.88,1.925,5.762,3.91,9.149,4.858
			c0.988,0.276,2.363,0.482,2.769-0.88c0.371-1.249,0.472-2.666-0.871-3.601c-0.408-0.284-0.815-0.612-1.274-0.771
			c-1.732-0.599-3.242-1.582-4.771-2.559C302.945,329.397,301.835,328.799,300.42,328.851z M366.081,389.939
			c-1.302-2.937-3.294-6.196-5.798-9.095c-0.785-0.909-2.166-0.708-3.183,0.079c-1.061,0.822-0.782,1.959-0.374,2.944
			c1.243,2.994,3.186,5.578,5.053,8.194c0.767,1.075,1.943,1.196,3.137,0.801C365.978,392.511,366.098,391.591,366.081,389.939z
			 M322.685,322.885c2.147,0.045,3.33-1.237,2.732-2.891c-1.248-3.455-3.37-6.435-5.709-9.233c-0.669-0.8-1.684-0.981-2.731-0.447
			c-0.982,0.501-1.111,1.359-1.116,2.305c-0.005,1.034,0.352,1.961,0.938,2.781c1.299,1.814,2.569,3.641,3.544,5.66
			C320.887,322.185,321.798,322.822,322.685,322.885z M312.07,369.466c-0.049-2.106-0.983-2.792-2.871-2.226
			c-3,0.901-5.308,3.001-7.911,4.587c-1.485,0.905-2.51,2.209-1.512,3.917c1.043,1.784,2.762,1.278,4.179,0.47
			c2.362-1.348,4.628-2.868,6.929-4.326C311.817,371.296,312.201,370.432,312.07,369.466z M301.784,355.393
			c1.613,0,2.779,0.015,3.945-0.003c1.8-0.029,2.448-1.034,2.426-2.743c-0.021-1.718-0.769-2.802-2.506-2.683
			c-3.06,0.21-6.143,0.255-9.162,0.916c-1.088,0.238-1.488,0.894-1.491,1.958c-0.003,1.114,0.253,1.855,1.528,2.166
			C298.422,355.467,300.324,355.359,301.784,355.393z M380.732,347.894c-1.996,0-3.328,0.009-4.659-0.001
			c-2.467-0.02-1.751,1.936-2,3.256c-0.316,1.681,0.937,2.165,2.104,2.034c2.968-0.334,5.982-0.026,8.925-0.75
			c1.126-0.276,1.808-0.757,1.89-1.934c0.088-1.254-0.424-1.982-1.708-2.333C383.55,347.691,381.795,348.071,380.732,347.894z"/>
		<path fill-rule="evenodd" clip-rule="evenodd" fill="#F6F4F4" d="M432.998,342.902c-7.019-10.97-14.892-21.27-24.239-30.369
			c-19.401-18.886-42.01-32.291-68.07-39.857c-15.347-4.455-30.995-6.737-46.935-6.37c-34.652,0.799-65.916,11.56-93.486,32.709
			c-13.116,10.061-24.227,22.019-33.591,35.633c-1.151,1.674-2.464,3.242-3.489,5.009c-0.279,0.48-0.422,1.306-1.168,0.954
			c-0.758-0.358-0.255-1.025,0.02-1.494c1.998-3.406,3.881-6.89,6.06-10.178c17.931-27.063,41.972-46.633,72.159-58.623
			c11.99-4.762,24.434-7.842,37.203-9.436c12.594-1.572,25.27-1.65,37.855,0.008c31.854,4.198,60.016,16.748,84.232,37.962
			c13.907,12.183,25.315,26.377,34.186,42.604c0.237,0.435,0.419,0.902,0.627,1.353C433.907,342.84,433.453,342.872,432.998,342.902
			z"/>
		<path fill-rule="evenodd" clip-rule="evenodd" fill="#F7F5F5" d="M162.784,495.968c4.216,6.252,8.413,12.509,13.221,18.344
			c18.443,22.379,41.216,38.679,68.375,48.816c15.648,5.842,31.803,9.056,48.533,9.838c12.723,0.596,25.287-0.314,37.696-2.783
			c23.713-4.717,45.297-14.363,64.539-29.095c11.771-9.013,22.173-19.373,30.833-31.436c2.575-3.589,5.098-7.216,7.645-10.824
			c0.225,0.287,0.447,0.571,0.67,0.854c-0.729,3.067-3.012,5.262-4.579,7.83c-16.324,26.758-39.126,46.169-67.625,59.009
			c-12.921,5.82-26.456,9.637-40.45,11.631c-11.463,1.633-22.996,1.88-34.582,0.896c-31.479-2.677-59.534-13.942-84.316-33.376
			c-14.398-11.291-26.366-24.839-36.038-40.394c-1.742-2.801-3.589-5.539-4.729-8.667
			C162.245,496.397,162.515,496.182,162.784,495.968z"/>
		<path fill-rule="evenodd" clip-rule="evenodd" fill="#D7CECD" d="M432.998,342.902c0.455-0.03,0.909-0.062,1.363-0.093
			c2.718,4.261,4.769,8.842,6.521,13.566c-0.251-0.016-0.501-0.032-0.751-0.048C437.754,351.852,435.376,347.377,432.998,342.902z"
			/>
		<path fill-rule="evenodd" clip-rule="evenodd" fill="#D7CECD" d="M433.828,498.208c2.041-3.622,4.081-7.245,6.122-10.867
			c0.103,0.102,0.21,0.2,0.321,0.293c-1.407,4.19-3.372,8.111-5.72,11.847C434.514,498.94,434.329,498.484,433.828,498.208z"/>
		<path fill-rule="evenodd" clip-rule="evenodd" fill="#D7CECD" d="M155.563,352.355c1.313-3.279,2.606-6.568,4.624-9.505
			c0.364,0.077,0.727,0.154,1.09,0.231c-1.618,3.087-3.235,6.175-4.853,9.263C156.137,352.348,155.85,352.351,155.563,352.355z"/>
		<path fill-rule="evenodd" clip-rule="evenodd" fill="#D7CECD" d="M156.445,483.942c1.587,3.094,3.175,6.187,4.762,9.281
			c-0.335,0.071-0.668,0.143-1.002,0.215c-1.999-2.938-3.26-6.23-4.562-9.503C155.911,483.937,156.178,483.94,156.445,483.942z"/>
		<path fill-rule="evenodd" clip-rule="evenodd" fill="#AB9694" d="M154.218,480.408c-1.042-1.29-1.278-2.518-1.372-3.798
			C153.618,477.64,154.438,478.653,154.218,480.408z"/>
		<path fill-rule="evenodd" clip-rule="evenodd" fill="#AB9694" d="M156.445,483.942c-0.267-0.002-0.535-0.005-0.802-0.007
			c-0.998-0.776-0.952-1.886-1.381-3.372C155.903,481.583,156.007,482.86,156.445,483.942z"/>
		<path fill-rule="evenodd" clip-rule="evenodd" fill="#AB9694" d="M440.132,356.327c0.25,0.016,0.5,0.032,0.751,0.048
			c1.02,0.867,1.115,2.022,0.736,3.372C441.123,358.607,440.628,357.467,440.132,356.327z"/>
		<path fill-rule="evenodd" clip-rule="evenodd" fill="#AB9694" d="M440.488,486.137c0.047-1.075,0.395-1.999,1.464-2.919
			c0.035,1.442-0.133,2.472-1.147,3.209C440.617,486.42,440.512,486.324,440.488,486.137z"/>
		<path fill-rule="evenodd" clip-rule="evenodd" fill="#AB9694" d="M155.563,352.355c0.287-0.004,0.574-0.007,0.861-0.011
			c-0.477,1.02-0.954,2.04-1.664,3.557C154.312,354.112,154.822,353.203,155.563,352.355z"/>
		<path fill-rule="evenodd" clip-rule="evenodd" fill="#F6F4F4" d="M161.277,343.082c-0.363-0.077-0.726-0.154-1.09-0.231
			c0.022-0.08,0.029-0.168,0.07-0.236c0.463-0.772,0.592-2.471,1.629-1.942C162.975,341.226,161.689,342.286,161.277,343.082z"/>
		<path fill-rule="evenodd" clip-rule="evenodd" fill="#AB9694" d="M443.063,480.66c0.104,0.896-0.031,1.666-0.851,2.312
			C441.961,481.89,442.659,481.304,443.063,480.66z"/>
		<path fill-rule="evenodd" clip-rule="evenodd" fill="#AB9694" d="M154.141,355.746c0.13,0.249,0.291,0.42,0.296,0.596
			c0.012,0.392-0.294,0.544-0.608,0.443c-0.134-0.043-0.266-0.397-0.229-0.574C153.634,356.051,153.9,355.94,154.141,355.746z"/>
		<path fill-rule="evenodd" clip-rule="evenodd" fill="#F7F5F5" d="M160.935,494.875c-0.075-0.366,0.047-0.7,0.383-0.724
			c0.61-0.043,0.822,0.445,0.867,0.947c0.025,0.283-0.044,0.646-0.515,0.582C161.185,495.614,161.041,495.256,160.935,494.875z"/>
		<path fill-rule="evenodd" clip-rule="evenodd" fill="#D7CECD" d="M439.95,487.34c0.036-0.465,0.076-0.929,0.538-1.203
			c0.023,0.187,0.129,0.283,0.316,0.29c-0.179,0.401-0.357,0.803-0.536,1.205C440.16,487.541,440.053,487.442,439.95,487.34z"/>
		<path fill-rule="evenodd" clip-rule="evenodd" fill="#F7F5F5" d="M433.828,498.208c0.501,0.276,0.686,0.732,0.724,1.272
			c-0.04,0.126-0.126,0.193-0.257,0.203c-0.223-0.283-0.445-0.567-0.67-0.854C433.692,498.621,433.761,498.415,433.828,498.208z"/>
		<path fill-rule="evenodd" clip-rule="evenodd" fill="#AB9694" d="M443.696,479.57c-0.036-0.061-0.072-0.12-0.108-0.18
			c0.083-0.048,0.165-0.095,0.247-0.143c0.008,0.072,0.039,0.153,0.017,0.214C443.834,479.51,443.75,479.535,443.696,479.57z"/>
		<path fill-rule="evenodd" clip-rule="evenodd" fill="#F7F5F5" d="M160.205,493.438c0.334-0.072,0.667-0.144,1.002-0.215
			c0.106,0.298,0.193,0.64-0.178,0.772C160.564,494.162,160.38,493.775,160.205,493.438z"/>
		<path fill-rule="evenodd" clip-rule="evenodd" fill="#F7F5F5" d="M161.976,496.612c-0.194-0.273-0.306-0.55,0.018-0.804
			c0.32-0.251,0.566-0.087,0.789,0.162C162.515,496.182,162.245,496.397,161.976,496.612z"/>
		<path fill-rule="evenodd" clip-rule="evenodd" fill="#679528" d="M352.383,418.664c0-3.792-0.02-7.68,0.006-11.569
			c0.019-2.812,0.689-3.524,3.545-3.602c6.827-0.186,13.656-0.357,20.485-0.45c3.839-0.052,4.612,0.822,4.684,4.697
			c0.16,8.662,0.381,17.323,0.472,25.985c0.015,1.326,0.562,1.903,1.596,2.46c4.251,2.287,8.521,4.548,12.688,6.982
			c6.016,3.514,8.514,10.41,5.943,15.992c-2.645,5.746-9.526,8.223-16.237,5.881c-0.598-0.209-1.132-0.765-1.4-0.667
			c0,7.908-0.128,15.637,0.029,23.36c0.27,13.325,0.71,26.647,1.093,39.97c0.067,2.33,0.284,4.657,0.288,6.986
			c0.005,2.752-1.148,3.981-3.893,4.153c-2.075,0.129-4.163,0.056-6.246,0.086c-30.32,0.447-60.641,0.9-90.96,1.344
			c-6.626,0.098-7.056-0.025-7.145-6.795c-0.258-19.823-0.769-39.643-1.156-59.463c-0.065-3.306-0.009-6.614-0.294-10.073
			c-2.38,2.038-4.927,3.246-7.867,3.475c-8.599,0.669-14.595-7.166-11.817-15.462c1.002-2.992,2.725-5.306,5.554-7.056
			c17.774-10.999,36.091-21.079,53.9-32.013c3.165-1.943,5.866-4.652,9.767-5.307c3.245-0.545,6.189-0.24,9.099,1.504
			c5.424,3.253,10.983,6.279,16.488,9.396C351.356,418.679,351.706,418.946,352.383,418.664z M378.453,496.399
			c-0.329-11.327-0.714-22.653-0.934-33.982c-0.038-1.965-0.755-2.906-2.407-3.819c-14.864-8.219-29.686-16.517-44.484-24.853
			c-1.308-0.737-2.266-0.859-3.618-0.065c-14.724,8.639-29.476,17.228-44.257,25.767c-1.372,0.793-1.853,1.722-1.696,3.22
			c0.216,2.066,0.425,4.143,0.464,6.219c0.402,21.326,0.782,42.652,1.117,63.979c0.023,1.49,0.399,2.026,1.978,1.983
			c8.496-0.233,16.994-0.379,25.492-0.506c1.221-0.019,1.816-0.288,1.783-1.676c-0.099-4.08-0.043-8.163-0.108-12.244
			c-0.135-8.414-0.306-16.827-0.471-25.24c-0.044-2.24,0.739-3.681,3.084-4.472c3.758-1.268,7.603-0.766,11.396-0.961
			c6.142-0.315,12.288-0.97,18.454-0.391c2.182,0.205,3.526,1.438,4.112,3.422c0.396,1.342,0.611,2.771,0.68,4.171
			c0.551,11.316,1.097,22.634,1.516,33.956c0.076,2.065,0.715,2.671,2.775,2.602c7.91-0.265,15.827-0.451,23.741-0.45
			c2.366,0,2.661-0.875,2.575-2.935C379.171,518.885,378.838,507.641,378.453,496.399z M260.966,455.016
			c-0.087,5.179,4.313,8.011,8.61,5.916c1.12-0.546,2.203-1.174,3.279-1.807c17.011-9.993,34.064-19.916,50.987-30.057
			c3.347-2.005,6.001-2.066,9.417-0.155c18.229,10.202,36.583,20.182,54.878,30.266c0.906,0.499,1.769,0.842,2.816,0.789
			c2.837-0.144,5.258-2.005,5.879-4.583c0.641-2.658-0.8-5.513-3.558-7.036c-11.511-6.356-23.009-12.734-34.537-19.058
			c-9.341-5.122-18.733-10.151-28.072-15.277c-2.412-1.323-4.613-1.366-6.96,0.175c-2.079,1.366-4.313,2.495-6.479,3.727
			c-17.73,10.082-34.851,21.202-52.73,31.03C261.932,450.356,261.146,452.713,260.966,455.016z M342.744,514.858
			c-0.254,0.002-0.507,0.004-0.761,0.006c0-5.571-0.096-11.146,0.051-16.714c0.053-2.012-0.66-2.303-2.439-2.202
			c-6.646,0.374-13.3,0.646-19.954,0.844c-1.601,0.048-2.122,0.491-2.063,2.152c0.394,11.06,0.712,22.123,0.984,33.187
			c0.037,1.494,0.454,2.007,2.01,1.97c6.989-0.168,13.981-0.258,20.973-0.279c1.53-0.005,2.023-0.465,1.939-2.004
			C343.179,526.167,342.982,520.512,342.744,514.858z M376.508,432.355c0.223-7.714-0.454-15.244-0.553-22.785
			c-0.017-1.272-0.764-1.235-1.639-1.252c-5.152-0.097-10.307-0.157-15.455-0.346c-1.7-0.063-2.364,0.38-2.259,2.205
			c0.193,3.312,0.543,6.643,0.019,9.953c-0.199,1.255,0.459,1.746,1.409,2.268c4.296,2.357,8.549,4.794,12.84,7.159
			C372.661,430.544,374.353,431.758,376.508,432.355z"/>
		<path fill-rule="evenodd" clip-rule="evenodd" fill="#689529" d="M226.444,446.314c0-14.891,0.001-29.467-0.004-44.043
			c0-0.561,0.039-1.065-0.621-1.467c-7.374-4.498-11.317-11.588-14.081-19.375c-5.908-16.647-1.188-35.999,11.182-46.745
			c0.816-0.709,1.665-1.39,2.55-2.009c2.712-1.895,4.869-1.909,7.58,0.052c7.774,5.622,12.453,13.344,14.69,22.523
			c4.026,16.517,0.043,30.954-11.737,43.222c-0.517,0.539-1.049,1.272-1.696,1.438c-2.709,0.696-2.578,2.687-2.564,4.821
			c0.054,8.488,0.022,16.976,0.022,25.257c0.962,0.601,1.238,0.024,1.554-0.289c3.073-3.053,6.102-6.15,9.203-9.175
			c0.969-0.945,1.326-1.797,1.101-3.261c-3.078-19.957,12.771-39.281,32.965-40.28c1.243-0.062,2.507-0.047,3.741,0.102
			c6.877,0.831,8.859,3.003,9.197,9.967c0.692,14.293-8.276,28.137-21.943,33.891c-5.811,2.446-11.822,3.422-18.068,2.338
			c-1.217-0.211-2.03-0.007-2.891,0.835c-4.469,4.365-8.943,8.728-13.504,12.996c-1.156,1.082-1.135,2.286-1.128,3.622
			c0.155,27.494,0.315,54.988,0.439,82.481c0.021,4.749-0.11,9.497-0.178,14.245c-0.007,0.5-0.065,0.997-0.095,1.496
			c-0.092,1.521-0.775,2.642-2.385,2.667c-1.616,0.025-2.35-1.05-2.408-2.6c-0.134-3.58-0.349-7.158-0.371-10.738
			c-0.144-24.078-0.274-48.155-0.308-72.234c-0.003-2.117-0.594-3.563-2.159-4.954c-4.172-3.706-8.25-7.521-12.267-11.396
			c-1.209-1.167-2.358-1.505-3.998-1.209c-22.722,4.093-43.273-17.515-39.398-41.242c0.365-2.236,1.57-3.369,3.693-3.758
			c21.132-3.87,42.729,12.393,42.396,34.735c-0.004,0.25,0.046,0.522-0.034,0.746c-1.507,4.197,0.43,6.991,3.536,9.593
			C221.229,440.891,223.679,443.604,226.444,446.314z M231.595,394.135c0.271,0.042,0.542,0.085,0.813,0.128
			c0.257-0.202,0.532-0.385,0.768-0.608c15.501-14.662,14.203-42.769-2.513-55.997c-1.405-1.112-2.12-0.563-3.151,0.285
			c-16.196,13.299-17.675,39.958-3.018,54.935c0.428,0.438,0.74,1.139,1.87,0.984c0-1.765-0.039-3.57,0.008-5.372
			c0.1-3.824-0.227-7.669,0.568-11.461c0.242-1.152,0.716-2.108,2.051-2.113c1.336-0.005,1.895,0.969,2.068,2.103
			c0.25,1.641,0.483,3.301,0.513,4.958C231.643,386.028,231.595,390.082,231.595,394.135z M248.265,413.801
			c0.314,0.224,0.628,0.449,0.942,0.673c1.3-1.499,2.537-3.06,3.917-4.481c1.854-1.91,3.763-3.775,5.756-5.538
			c1.135-1.004,2.56-1.393,3.82-0.164c1.319,1.287,1.048,2.715-0.045,4.011c-0.695,0.824-1.502,1.556-2.266,2.322
			c-2.485,2.494-4.974,4.984-7.718,7.732c0.823,0.168,1.127,0.271,1.437,0.286c15.685,0.726,30.736-13.637,30.376-29.348
			c-0.181-7.935,0.247-7.13-7.177-7.224c-10.698-0.135-18.608,5.391-24.387,14.101C249.377,401.513,247.878,407.439,248.265,413.801
			z M209.378,429.337c0.073-0.746,0.124-1.063,0.132-1.381c0.341-13.16-9.5-25.556-23.046-29.041
			c-3.664-0.943-7.368-1.222-11.131-0.786c-1.126,0.13-1.698,0.492-1.834,1.809c-1.581,15.342,9.336,30.274,24.489,33.234
			c2.266,0.442,4.644,1.062,7.063,0.117c-2.302-2.376-4.499-4.624-6.673-6.894c-1.205-1.257-2.547-2.408-3.395-3.966
			c-0.513-0.943-0.619-1.948,0.197-2.771c0.846-0.852,1.899-1.059,2.96-0.407c0.774,0.475,1.527,1.015,2.193,1.629
			C203.263,423.582,206.156,426.319,209.378,429.337z"/>
		<path fill-rule="evenodd" clip-rule="evenodd" fill="#689529" d="M341.325,324.287c15.496-0.008,27.787,12.228,27.814,27.689
			c0.026,15.233-12.009,27.331-27.224,27.331c-14.548,0-28.181-11.668-28.015-27.853
			C314.058,336.306,326.056,324.294,341.325,324.287z M319.075,351.569c0.01,12.566,10.337,23.063,22.724,23.095
			c12.25,0.032,22.346-10.066,22.446-22.451c0.101-12.549-10.474-23.079-23.103-23.004
			C328.829,329.283,319.066,339.175,319.075,351.569z"/>
		<path fill-rule="evenodd" clip-rule="evenodd" fill="#689529" d="M380.086,326.267c1.114,0.085,1.865,0.571,2.247,1.496
			c0.467,1.128,0.181,2.191-0.784,2.9c-2.671,1.963-5.322,3.978-8.437,5.222c-0.94,0.376-1.978,0.65-2.748-0.303
			c-0.792-0.98-1.127-2.401-0.251-3.197C373.037,329.732,376.432,327.753,380.086,326.267z"/>
		<path fill-rule="evenodd" clip-rule="evenodd" fill="#679528" d="M381.201,374.41c-1.035-0.019-1.942-0.468-2.779-0.989
			c-1.751-1.089-3.501-2.156-5.422-2.938c-1.919-0.78-2.729-2.302-1.949-4.195c0.813-1.971,2.582-1.225,3.846-0.626
			c2.612,1.238,5.124,2.699,7.619,4.167c1.074,0.631,1.603,1.698,1.197,2.98C383.337,374,382.422,374.475,381.201,374.41z"/>
		<path fill-rule="evenodd" clip-rule="evenodd" fill="#679528" d="M324.843,381.337c2.109,0.168,3.057,1.107,2.556,2.817
			c-1.006,3.437-3.017,6.396-4.937,9.368c-0.647,1.002-1.808,1.196-2.9,0.769c-1.158-0.453-1.682-1.6-1.36-2.638
			c1.074-3.467,3.172-6.448,4.981-9.553C323.498,381.559,324.367,381.183,324.843,381.337z"/>
		<path fill-rule="evenodd" clip-rule="evenodd" fill="#679528" d="M338.935,392.947c0.477-2.077,0.604-4.289,0.552-6.529
			c-0.042-1.835,1.326-1.994,2.756-2.056c1.573-0.068,2.251,0.65,2.352,2.179c0.19,2.888-0.002,5.768-0.025,8.65
			c-0.018,2.147-1.513,2.42-2.916,2.639c-1.551,0.242-2.129-0.968-2.362-2.297C339.147,394.72,339.063,393.897,338.935,392.947z"/>
		<path fill-rule="evenodd" clip-rule="evenodd" fill="#689529" d="M342.517,312.484c0,1.439-0.054,2.525,0.013,3.603
			c0.105,1.716-0.573,2.701-2.353,2.822c-1.811,0.125-2.944-0.654-2.961-2.507c-0.026-2.879-0.827-5.748,0.065-8.653
			c0.4-1.302,0.946-1.955,2.356-2.024c1.487-0.073,2.038,0.787,2.512,1.934C342.849,309.355,341.934,311.147,342.517,312.484z"/>
		<path fill-rule="evenodd" clip-rule="evenodd" fill="#679528" d="M363.63,311.399c0.063,1.071-0.389,2.048-0.966,2.968
			c-1.052,1.676-2.124,3.325-2.799,5.218c-0.329,0.921-1.036,1.7-2.011,2.105c-1.854,0.772-3.77-0.58-3.289-2.506
			c0.89-3.576,2.989-6.597,5.026-9.601c0.682-1.005,1.909-0.983,2.961-0.561C363.542,309.421,363.654,310.387,363.63,311.399z"/>
		<path fill-rule="evenodd" clip-rule="evenodd" fill="#679528" d="M300.42,328.851c1.415-0.052,2.525,0.546,3.567,1.213
			c1.528,0.978,3.038,1.96,4.771,2.559c0.459,0.159,0.866,0.487,1.274,0.771c1.343,0.935,1.242,2.352,0.871,3.601
			c-0.405,1.362-1.78,1.156-2.769,0.88c-3.388-0.948-6.27-2.933-9.149-4.858c-0.835-0.559-1.219-1.608-0.794-2.673
			C298.6,329.327,299.366,328.754,300.42,328.851z"/>
		<path fill-rule="evenodd" clip-rule="evenodd" fill="#679528" d="M366.081,389.939c0.017,1.652-0.104,2.572-1.165,2.923
			c-1.193,0.395-2.37,0.273-3.137-0.801c-1.867-2.616-3.81-5.2-5.053-8.194c-0.408-0.985-0.687-2.122,0.374-2.944
			c1.017-0.787,2.397-0.988,3.183-0.079C362.787,383.743,364.779,387.002,366.081,389.939z"/>
		<path fill-rule="evenodd" clip-rule="evenodd" fill="#679528" d="M322.685,322.885c-0.887-0.063-1.798-0.7-2.342-1.826
			c-0.975-2.019-2.245-3.845-3.544-5.66c-0.587-0.819-0.943-1.747-0.938-2.781c0.005-0.945,0.134-1.804,1.116-2.305
			c1.048-0.534,2.063-0.353,2.731,0.447c2.339,2.798,4.461,5.778,5.709,9.233C326.015,321.648,324.832,322.93,322.685,322.885z"/>
		<path fill-rule="evenodd" clip-rule="evenodd" fill="#679528" d="M312.07,369.466c0.131,0.966-0.253,1.831-1.187,2.422
			c-2.301,1.458-4.566,2.978-6.929,4.326c-1.417,0.808-3.136,1.314-4.179-0.47c-0.998-1.708,0.026-3.012,1.512-3.917
			c2.604-1.586,4.911-3.686,7.911-4.587C311.087,366.673,312.021,367.36,312.07,369.466z"/>
		<path fill-rule="evenodd" clip-rule="evenodd" fill="#679528" d="M301.784,355.393c-1.46-0.033-3.362,0.074-5.26-0.389
			c-1.275-0.311-1.531-1.052-1.528-2.166c0.003-1.064,0.403-1.721,1.491-1.958c3.019-0.661,6.102-0.706,9.162-0.916
			c1.737-0.119,2.484,0.964,2.506,2.683c0.022,1.708-0.626,2.714-2.426,2.743C304.563,355.407,303.397,355.393,301.784,355.393z"/>
		<path fill-rule="evenodd" clip-rule="evenodd" fill="#679528" d="M380.732,347.894c1.063,0.177,2.817-0.203,4.551,0.271
			c1.284,0.352,1.796,1.079,1.708,2.333c-0.082,1.176-0.764,1.657-1.89,1.934c-2.942,0.724-5.957,0.416-8.925,0.75
			c-1.167,0.131-2.42-0.353-2.104-2.034c0.249-1.321-0.467-3.276,2-3.256C377.404,347.902,378.736,347.894,380.732,347.894z"/>
		<path fill-rule="evenodd" clip-rule="evenodd" fill="#FDFDFC" d="M378.455,496.399c0.383,11.242,0.716,22.486,1.189,33.724
			c0.086,2.06-0.209,2.935-2.575,2.935c-7.914-0.001-15.831,0.186-23.741,0.45c-2.061,0.069-2.699-0.536-2.775-2.602
			c-0.419-11.322-0.965-22.64-1.516-33.956c-0.068-1.4-0.283-2.829-0.68-4.171c-0.586-1.984-1.931-3.217-4.112-3.422
			c-6.166-0.579-12.313,0.075-18.454,0.391c-3.793,0.195-7.638-0.307-11.396,0.961c-2.345,0.791-3.128,2.231-3.084,4.472
			c0.165,8.413,0.336,16.826,0.471,25.24c0.065,4.081,0.01,8.164,0.108,12.244c0.033,1.388-0.563,1.657-1.783,1.676
			c-8.498,0.127-16.996,0.272-25.492,0.506c-1.579,0.043-1.955-0.493-1.978-1.983c-0.335-21.326-0.715-42.652-1.117-63.979
			c-0.039-2.076-0.248-4.152-0.464-6.219c-0.157-1.498,0.324-2.427,1.696-3.22c14.781-8.539,29.534-17.128,44.257-25.767
			c1.353-0.794,2.311-0.672,3.618,0.065c14.799,8.336,29.62,16.634,44.484,24.853c1.652,0.913,2.369,1.854,2.407,3.819
			C377.739,473.746,378.124,485.072,378.455,496.399z M330.212,455.919c-3.923,0.333-7.426,0.986-10.722,0.301
			c-5.742-1.194-10.859,4.687-11.809,9.237c-1.429,6.854,3.561,13.722,10.224,13.701c7.567-0.023,15.149-0.592,22.698-0.281
			c6.604,0.272,11.53-6.463,10.906-12.77c-0.529-5.341-4.821-10.127-9.335-10.179C338.016,455.881,333.854,455.919,330.212,455.919z
			"/>
		<path fill-rule="evenodd" clip-rule="evenodd" fill="#FCFCFB" d="M260.966,455.016c0.18-2.303,0.966-4.66,3.53-6.069
			c17.879-9.828,35-20.948,52.73-31.03c2.166-1.232,4.399-2.361,6.479-3.727c2.347-1.541,4.548-1.499,6.96-0.175
			c9.339,5.125,18.731,10.155,28.072,15.277c11.528,6.323,23.026,12.701,34.537,19.058c2.758,1.523,4.198,4.378,3.558,7.036
			c-0.621,2.578-3.042,4.439-5.879,4.583c-1.048,0.053-1.91-0.29-2.816-0.789c-18.295-10.084-36.649-20.063-54.878-30.266
			c-3.416-1.911-6.07-1.85-9.417,0.155c-16.923,10.141-33.976,20.063-50.987,30.057c-1.076,0.633-2.159,1.261-3.279,1.807
			C265.279,463.027,260.878,460.195,260.966,455.016z"/>
		<path fill-rule="evenodd" clip-rule="evenodd" fill="#FCFDFC" d="M342.744,514.858c0.238,5.654,0.435,11.31,0.74,16.959
			c0.084,1.539-0.409,1.999-1.939,2.004c-6.991,0.021-13.983,0.111-20.973,0.279c-1.556,0.037-1.973-0.476-2.01-1.97
			c-0.272-11.063-0.591-22.127-0.984-33.187c-0.06-1.661,0.462-2.104,2.063-2.152c6.654-0.197,13.308-0.47,19.954-0.844
			c1.779-0.101,2.492,0.19,2.439,2.202c-0.146,5.568-0.051,11.143-0.051,16.714C342.237,514.862,342.49,514.86,342.744,514.858z"/>
		<path fill-rule="evenodd" clip-rule="evenodd" fill="#FBFCFA" d="M376.508,432.355c-2.155-0.597-3.847-1.811-5.638-2.798
			c-4.291-2.365-8.544-4.802-12.84-7.159c-0.95-0.522-1.608-1.013-1.409-2.268c0.524-3.311,0.175-6.642-0.019-9.953
			c-0.105-1.824,0.559-2.267,2.259-2.205c5.148,0.189,10.303,0.249,15.455,0.346c0.875,0.017,1.622-0.02,1.639,1.252
			C376.054,417.111,376.73,424.641,376.508,432.355z"/>
		<path fill-rule="evenodd" clip-rule="evenodd" fill="#FCFDFB" d="M231.595,394.135c0-4.054,0.048-8.107-0.023-12.159
			c-0.03-1.656-0.262-3.316-0.513-4.958c-0.173-1.134-0.731-2.108-2.068-2.103c-1.335,0.004-1.81,0.96-2.051,2.113
			c-0.794,3.792-0.468,7.637-0.568,11.461c-0.047,1.802-0.008,3.607-0.008,5.372c-1.13,0.155-1.441-0.546-1.87-0.984
			c-14.657-14.977-13.179-41.636,3.018-54.935c1.031-0.847,1.747-1.396,3.151-0.285c16.716,13.229,18.015,41.335,2.513,55.997
			c-0.236,0.224-0.511,0.407-0.768,0.608C232.137,394.221,231.866,394.178,231.595,394.135z"/>
		<path fill-rule="evenodd" clip-rule="evenodd" fill="#FCFCFB" d="M248.265,413.801c-0.386-6.362,1.113-12.289,4.656-17.628
			c5.779-8.71,13.688-14.236,24.387-14.101c7.423,0.093,6.996-0.711,7.177,7.224c0.359,15.71-14.692,30.074-30.376,29.348
			c-0.309-0.015-0.614-0.118-1.437-0.286c2.744-2.748,5.232-5.239,7.718-7.732c0.764-0.766,1.57-1.498,2.266-2.322
			c1.093-1.296,1.364-2.724,0.045-4.011c-1.26-1.229-2.685-0.84-3.82,0.164c-1.993,1.763-3.902,3.627-5.756,5.538
			c-1.38,1.422-2.617,2.983-3.917,4.481C248.893,414.25,248.579,414.025,248.265,413.801z"/>
		<path fill-rule="evenodd" clip-rule="evenodd" fill="#FBFCFA" d="M209.378,429.337c-3.222-3.019-6.116-5.756-9.044-8.455
			c-0.667-0.615-1.419-1.154-2.193-1.629c-1.061-0.652-2.114-0.445-2.96,0.407c-0.816,0.823-0.71,1.828-0.197,2.771
			c0.848,1.558,2.19,2.709,3.395,3.966c2.174,2.27,4.371,4.518,6.673,6.894c-2.419,0.944-4.796,0.325-7.063-0.117
			c-15.153-2.96-26.07-17.893-24.489-33.234c0.136-1.317,0.708-1.679,1.834-1.809c3.763-0.436,7.468-0.157,11.131,0.786
			c13.546,3.485,23.387,15.88,23.046,29.041C209.502,428.274,209.452,428.591,209.378,429.337z"/>
		<path fill-rule="evenodd" clip-rule="evenodd" fill="#FDFDFC" d="M319.075,351.569c-0.009-12.395,9.754-22.287,22.067-22.36
			c12.629-0.075,23.203,10.455,23.103,23.004c-0.101,12.385-10.196,22.483-22.446,22.451
			C329.412,374.632,319.085,364.136,319.075,351.569z"/>
		<path fill-rule="evenodd" clip-rule="evenodd" fill="#679528" d="M330.212,455.919c3.643,0,7.804-0.038,11.963,0.01
			c4.514,0.052,8.806,4.838,9.335,10.179c0.624,6.307-4.303,13.042-10.906,12.77c-7.549-0.311-15.131,0.258-22.698,0.281
			c-6.663,0.021-11.652-6.848-10.224-13.701c0.949-4.551,6.066-10.432,11.809-9.237
			C322.786,456.906,326.289,456.252,330.212,455.919z M329.917,462.986c0-0.063,0-0.124,0-0.186c-3.909,0-7.819,0.044-11.727-0.02
			c-1.859-0.03-2.921,0.905-3.656,2.46c-1.793,3.786,0.367,7.311,4.916,7.571c5.228,0.3,10.474,0.313,15.712,0.403
			c2.253,0.039,4.475-0.265,6.616-1c2.23-0.767,3.353-2.989,2.896-5.674c-0.499-2.935-1.275-3.569-4.276-3.559
			C336.904,462.995,333.411,462.986,329.917,462.986z"/>
		<path fill-rule="evenodd" clip-rule="evenodd" fill="#FBFCFA" d="M329.917,462.986c3.494,0,6.987,0.009,10.481-0.003
			c3.001-0.011,3.777,0.624,4.276,3.559c0.456,2.685-0.666,4.907-2.896,5.674c-2.142,0.735-4.363,1.039-6.616,1
			c-5.238-0.091-10.484-0.104-15.712-0.403c-4.549-0.261-6.709-3.785-4.916-7.571c0.735-1.555,1.797-2.49,3.656-2.46
			c3.907,0.063,7.817,0.02,11.727,0.02C329.917,462.862,329.917,462.923,329.917,462.986z"/>
	</g>
</g>
</svg>
